<?xml version="1.0" standalone="no"?><!DOCTYPE svg PUBLIC "-//W3C//DTD SVG 1.1//EN" "http://www.w3.org/Graphics/SVG/1.1/DTD/svg11.dtd"><svg t="1620567337457" class="icon" viewBox="0 0 1024 1024" version="1.1" xmlns="http://www.w3.org/2000/svg" p-id="2038" xmlns:xlink="http://www.w3.org/1999/xlink" width="200" height="200"><defs><style type="text/css"></style></defs><path d="M929.404 952.102l-834.786 0c-34.538 0-62.618-30.589-62.618-68.182l0-614.946c0-37.593 28.08-68.182 62.618-68.182l224.444 0 14.706-106.364c1.418-10.32 10.254-18 20.684-18l315.12 0c10.429 0 19.244 7.68 20.662 18l14.706 106.364 224.466 0c34.516 0 62.596 30.589 62.596 68.182l0 614.946c0 37.593-28.08 68.182-62.596 68.182zM94.618 242.531c-11.324 0-20.88 12.109-20.88 26.444l0 614.946c0 14.334 9.556 26.444 20.88 26.444l834.786 0c11.302 0 20.858-12.109 20.858-26.444l0-614.946c0-14.334-9.556-26.444-20.858-26.444l-242.64 0c-10.429 0-19.244-7.68-20.662-18l-14.706-106.364-278.771 0-14.706 106.364c-1.418 10.32-10.254 18-20.662 18l-242.64 0zM512 786.436c-126.589 0-229.571-102.982-229.571-229.549s102.982-229.571 229.571-229.571 229.549 102.982 229.549 229.549-102.96 229.571-229.549 229.571zM512 369.055c-103.571 0-187.833 84.262-187.833 187.811 0 103.571 84.262 187.811 187.833 187.811 103.571 0 187.811-84.24 187.811-187.811 0-103.549-84.24-187.811-187.811-187.811z" p-id="2039" fill="#6b486b"></path></svg>