<?xml version="1.0" standalone="no"?><!DOCTYPE svg PUBLIC "-//W3C//DTD SVG 1.1//EN" "http://www.w3.org/Graphics/SVG/1.1/DTD/svg11.dtd"><svg class="icon" width="200px" height="200.00px" viewBox="0 0 1024 1024" version="1.1" xmlns="http://www.w3.org/2000/svg"><path d="M163.49 488.268L81.783 750.431a29.998 29.998 0 0 0 0.055 16.889l30.21 101.756C119.607 894.538 143.007 912 169.567 912h0.64c9.214 0 15.776-8.949 13.006-17.737l-37.211-118.038a29.992 29.992 0 0 1-0.323-16.942l39.361-114.931" fill="#7353BA" /><path d="M495.113 804.626l56.165-322.371-153.973-60.651h-86.534l-153.973 60.651 56.164 322.371L177.744 912h352.284l-35.218-80.871z" fill="#7353BA" /><path d="M281.161 433.268l40.181-30.621h63.733l41.84 30.621-75.476 206.697z" fill="#FFFFFF" /><path d="M271.371 337.146l-57.931-103.75a90.2 90.2 0 0 1 11.083-49.237l12.42-22.469c19.535-35.343 59.784-53.874 99.338-45.737l93.432 19.221c30.313 6.236 65.098 39.226 59.251 97.095l-55.041 104.878-31.392-39.321-36.693-34.495-37.453 40.487-57.014 33.328z" fill="#7353BA" /><path d="M433.922 337.146l13.715-69.191-27.111-44.472c-11.009-18.059-34.175-24.427-52.868-14.532l-15.712 8.317-15.712-8.317c-18.693-9.895-41.859-3.528-52.868 14.532l-27.111 44.472 22.759 110.699a82.206 82.206 0 0 0 50.053 59.796l0.64 0.255a59.997 59.997 0 0 0 44.476 0l0.64-0.255a82.207 82.207 0 0 0 46.932-48.654M240.862 449.141l56.026-22.069 36.34 148.974 18.211 74.651z" fill="#FFFFFF" /><path d="M463.033 449.141l-56.026-22.069-66.53 254.196z" fill="#FFFFFF" /><path d="M563.355 767.802l-37.418-136.673 22.999-142.861 78.432 270.615L581.91 912h-64.013" fill="#7353BA" /><path d="M563.355 767.802l-37.418-136.673 22.999-142.861 78.432 270.615L581.91 912" fill="#7353BA" /><path d="M581.916 927.004c-1.414 0-2.851-0.201-4.275-0.624-7.941-2.358-12.468-10.707-10.11-18.649l44.206-148.898-58.61-202.222-11.863 73.693 36.561 133.537c2.188 7.99-2.517 16.241-10.507 18.429-7.984 2.184-16.24-2.516-18.429-10.507l-37.42-136.673a15.019 15.019 0 0 1-0.342-6.345l22.999-142.862a15 15 0 0 1 13.892-12.587 15.011 15.011 0 0 1 15.325 10.796l78.433 270.615c0.8 2.76 0.79 5.69-0.027 8.445L596.29 916.27c-1.935 6.516-7.905 10.734-14.374 10.734z" fill="#2F195F" /><path d="M869.345 664.515l44.969 39.859c37.628 33.352 41.155 90.869 7.885 128.569l-0.608 0.689 1.335 6.786C930.22 877.493 901.841 912 864.055 912H659.504L540.451 744.647l-51.39-8.187 4.282-139.282 89.25-92.022 191.833 21.463 10.126 66.807 84.793 71.089z" fill="#FFFFFF" /><path d="M869.345 664.515l44.969 39.859c37.628 33.352 41.155 88.869 7.885 126.569l7.768 45.266C933.614 894.747 919.425 912 900.532 912H659.504l-94.743-354.026 17.833-52.818 191.833 21.463 10.126 66.807 84.792 71.089z" fill="#F52F57" /><path d="M540.451 463.238l113.585 85.77a53.938 53.938 0 0 0 32.506 10.894h2.017a53.94 53.94 0 0 0 37.079-14.765l66.624-63.056V324.486l-99.581-68.533-74.287 24.852-68.52 55.672-9.423 126.761z" fill="#FFFFFF" /><path d="M679.012 273.43S611.01 401.608 564.761 386.192c0 0-44.754 10.409-19.95 45.078 44.815 62.639 67.586 112.479-2.647 171.577s-1.979 132.267 3.16 141.688c5.139 9.422 49.636 63.204 5.954 87.185s-21.414 75.14-14.562 80.279l-47.654 2.601-13.401-36.953A94.132 94.132 0 0 1 473 797.873l0.175-0.409c7.949-9.772 6.436-24.117-0.572-36.901l-0.254-0.548a89.958 89.958 0 0 1-1.485-72.446l0.351-0.844a170.763 170.763 0 0 0 10.141-97.123l-0.17-0.902a152.948 152.948 0 0 1 3.248-70.291l2.712-9.491c9.768-34.186 16.143-69.262 18.831-104.714 2.257-29.774 7.073-68.239 17.346-96.848 27.516-78.534 70.761-102.971 96.356-110.546a30.78 30.78 0 0 1 32.007 9.357l0.111 0.129" fill="#F52F57" /><path d="M465.609 832.889c-1.544 0-3.114-0.24-4.661-0.745-7.875-2.573-12.173-11.042-9.6-18.917a144.608 144.608 0 0 1 4.244-11.317c3.225-7.631 12.023-11.203 19.656-7.978 7.631 3.225 11.202 12.024 7.978 19.655a113.948 113.948 0 0 0-3.361 8.956c-2.067 6.327-7.942 10.346-14.256 10.346z" fill="#2F195F" /><path d="M651.796 222.563c0 24.377 47.31 58.16 69.376 68.52 46.977 22.055 71.089 71.586 54.816 142.178-7.268 31.527-35.218 101.803-26.653 126.641 8.565 24.838 23.227 92.622 122.581 100.33 0 0 21.412-4.282 23.982 13.704 0 0 13.704-41.112-53.103-54.816s-29.121-115.627-21.412-162.734c7.244-44.266 12.218-220.498-118.683-265.229-15.562-5.318-32.775-2.197-45.576 8.129" fill="#F52F57" /><path d="M550.032 751.21L660.113 912h114.619L665.948 718.004l0.004 0.004c33.005-16.229 38.955-64.357 6.047-87.124l-91.575-63.354-52.751 50.213-16.34 56.846 38.699 76.621" fill="#FFFFFF" /><path d="M708.408 208.228c-1.782 0-3.593-0.319-5.356-0.994a156.845 156.845 0 0 0-5.208-1.885c-7.838-2.681-12.019-11.209-9.337-19.047 2.682-7.838 11.208-12.018 19.048-9.337 2.099 0.718 4.19 1.475 6.216 2.25 7.737 2.96 11.61 11.632 8.65 19.369-2.285 5.974-7.977 9.644-14.013 9.644z" fill="#2F195F" /><path d="M938.146 835.174c33.641-43.678 28.162-104.76-13.882-142.024l-14.706-13.035c0.204-0.452 0.393-0.913 0.554-1.391 0.64-1.9 5.946-19.105-4.611-37.827-9.917-17.587-29.917-29.839-59.446-36.417-11.721-2.61-25.307-10.074-26.332-44.909-0.8-27.141 6.496-59.885 12.358-86.195 2.405-10.795 4.482-20.119 5.772-27.961 3.945-23.975 5.237-67.583-4.107-111.584-12.348-58.137-40.351-104.353-80.982-133.649-6.721-4.846-16.096-3.326-20.939 3.394-4.845 6.72-3.325 16.095 3.395 20.94 79.628 57.415 79.718 175.409 73.033 216.029-1.154 7.011-3.146 15.953-5.453 26.308-6.226 27.941-13.974 62.714-13.063 93.602 1.524 51.763 27.922 68.437 49.797 73.31 12.198 2.717 22.016 6.486 29.129 11.135-39.605-3.674-66.641-13.389-82.565-29.646-12.416-12.675-18.748-29.193-21.854-57.015-1.83-16.384 10.146-60.53 18.069-89.743 3.246-11.964 6.312-23.265 8.293-31.863 8.59-37.262 7.099-70.358-4.435-98.371-11.096-26.951-31.367-47.959-58.622-60.755-4.491-2.108-9.483-4.156-14.77-6.323-14.89-6.106-39.811-16.327-39.811-26.054 0-0.566-0.032-1.132-0.096-1.694-1.82-16.013-4.551-36.452-7.244-42.942a15.249 15.249 0 0 0-2.858-4.435c-11.745-13.329-30.282-18.681-47.349-13.629-19.101 5.652-37.645 16.809-53.627 32.263-21.965 21.238-39.664 50.727-52.608 87.65-8.859 24.694-14.971 58.585-18.166 100.73a500.73 500.73 0 0 1-4.301 37.633l-61.741-24.32a97.057 97.057 0 0 0 10.905-21.534c2.791-7.8-1.271-16.386-9.071-19.176-7.801-2.79-16.386 1.271-19.176 9.071a67.225 67.225 0 0 1-38.367 39.774l-0.641 0.256c-10.756 4.292-22.602 4.292-33.358 0l-0.639-0.255c-21.058-8.403-36.354-26.678-40.92-48.885L272.14 270.719l24.036-39.429c6.868-11.266 21.382-15.255 33.043-9.082l15.711 8.317a15 15 0 0 0 14.035 0l15.712-8.317c11.659-6.171 26.174-2.183 33.042 9.083l24.068 39.481-12.579 63.458c-1.58 7.97 3.478 15.702 11.341 17.516l-0.003 0.014c0.063 0.014 0.127 0.019 0.19 0.033 0.091 0.02 0.178 0.049 0.27 0.068 0.264 0.052 0.526 0.077 0.789 0.115 0.183 0.026 0.364 0.061 0.549 0.08 0.459 0.049 0.915 0.072 1.369 0.079 0.07 0.001 0.139 0.012 0.209 0.012l0.031-0.001c0.308 0 0.611-0.024 0.916-0.044 0.161-0.01 0.321-0.008 0.482-0.023l0.059-0.007c0.122-0.012 0.242-0.031 0.363-0.046 0.317-0.039 0.632-0.089 0.944-0.148 0.127-0.024 0.254-0.045 0.379-0.073 0.391-0.085 0.777-0.185 1.157-0.299 0.108-0.033 0.213-0.069 0.32-0.104a14.65 14.65 0 0 0 1.01-0.369c0.068-0.028 0.137-0.052 0.204-0.081 0.388-0.165 0.766-0.348 1.137-0.544 0.081-0.043 0.16-0.087 0.24-0.131a15.118 15.118 0 0 0 1.104-0.664c0.357-0.239 0.701-0.498 1.037-0.768 0.074-0.06 0.148-0.119 0.222-0.181 0.322-0.268 0.636-0.547 0.935-0.842 0.047-0.046 0.09-0.096 0.136-0.142 0.251-0.255 0.493-0.519 0.726-0.792 0.081-0.094 0.162-0.188 0.241-0.284 0.247-0.304 0.484-0.617 0.708-0.942 0.075-0.108 0.144-0.221 0.216-0.332 0.167-0.256 0.326-0.517 0.477-0.785 0.067-0.119 0.137-0.235 0.201-0.356 0.013-0.024 0.028-0.047 0.04-0.072l55.041-104.878a14.998 14.998 0 0 0 1.642-5.463c3.821-37.818-8.132-63.402-18.833-78.205-13.128-18.161-32.198-30.951-52.319-35.09l-93.432-19.221a107.596 107.596 0 0 0-21.635-2.206c-39.01 0-74.972 21.22-93.853 55.379l-12.419 22.469a105.038 105.038 0 0 0-12.927 57.425c0.14 2.241 0.78 4.421 1.875 6.382l55.396 99.21 8.585 41.755a97.226 97.226 0 0 0 15.442 36.022l-44.401 17.49-0.004 0.002-61.301 24.147a44.733 44.733 0 0 0-14.873 9.597c-3.592 3.493-6.562 7.589-8.812 12.055-0.07 0.127-0.127 0.263-0.194 0.392a44.84 44.84 0 0 0-2.56 6.332 14.989 14.989 0 0 0-0.621 3.06L67.462 745.968c-0.072 0.232-0.139 0.468-0.201 0.704-3.034 11.719-2.766 20.64 0.84 27.086l29.566 99.587c4.636 15.616 13.987 29.021 27.043 38.763C137.766 921.851 153.277 927 169.566 927h19.198c0.018 0 0.036 0.003 0.053 0.003 0.486 0 0.967-0.03 1.445-0.077 0.109-0.011 0.216-0.029 0.324-0.042 0.351-0.042 0.699-0.093 1.044-0.159 0.169-0.032 0.335-0.071 0.502-0.109a15.042 15.042 0 0 0 1.388-0.385c0.239-0.079 0.473-0.168 0.707-0.259 0.196-0.076 0.392-0.149 0.584-0.233 0.234-0.102 0.461-0.218 0.689-0.332 0.175-0.088 0.354-0.168 0.525-0.262 0.378-0.208 0.747-0.432 1.106-0.672 0.126-0.085 0.245-0.179 0.368-0.267 0.249-0.177 0.496-0.357 0.734-0.549 0.124-0.101 0.242-0.208 0.363-0.312 0.229-0.197 0.453-0.398 0.67-0.609 0.11-0.107 0.216-0.217 0.322-0.327a14.743 14.743 0 0 0 1.487-1.801c0.079-0.113 0.161-0.224 0.237-0.339 0.184-0.278 0.354-0.565 0.52-0.856 0.065-0.114 0.135-0.224 0.197-0.34 0.168-0.315 0.32-0.64 0.467-0.969 0.045-0.1 0.097-0.196 0.14-0.297 0.172-0.41 0.325-0.831 0.462-1.261 0.068-0.214 0.119-0.436 0.177-0.654 0.054-0.2 0.116-0.395 0.162-0.598l0.059-0.263 0.002-0.011 24.097-107.1c0.434-1.928 0.482-3.922 0.143-5.867l-33.917-194.677c-1.422-8.162-9.187-13.625-17.352-12.203-8.161 1.422-13.625 9.19-12.203 17.352l4.854 27.862-37.688 114.196a16.13 16.13 0 0 0-0.224 0.74 44.913 44.913 0 0 0 0.485 25.413l15.927 50.521c2.018 6.401 7.929 10.494 14.302 10.494 1.494 0 3.014-0.225 4.514-0.698 7.901-2.49 12.287-10.915 9.796-18.815l-15.927-50.521a14.978 14.978 0 0 1-0.243-8.162l19.973-60.518 17.634 101.218L176.803 897h-7.237c-19.772 0-37.512-13.238-43.139-32.193L96.218 763.05a15.02 15.02 0 0 0-1.017-2.544c0.058-1.132 0.3-3.133 1.019-5.984l81.18-260.475c0.722-1.325 1.616-2.555 2.701-3.609a14.884 14.884 0 0 1 4.952-3.191l49.013-19.307 99.345 181.083-7.445 28.446c-0.03 0.113-0.045 0.227-0.072 0.341-0.059 0.251-0.115 0.503-0.161 0.758-0.046 0.253-0.082 0.505-0.116 0.758-0.027 0.209-0.055 0.418-0.073 0.63-0.029 0.323-0.041 0.643-0.049 0.964-0.003 0.117-0.018 0.23-0.018 0.347V897H281.16c-8.284 0-15 6.716-15 15s6.716 15 15 15h255.556a15 15 0 0 0 9.818-26.341c-2.724-3.358-11.126-19.498-8.498-34.713 1.556-9.003 6.897-15.897 16.332-21.077 11.646-6.394 19.884-14.724 24.612-24.823l68.755 100.428A15 15 0 0 0 660.112 927h148.365c8.284 0 15-6.716 15-15s-6.716-15-15-15h-24.96l-97.712-174.252c13.133-11.227 21.579-27.604 22.907-45.484 1.734-23.357-8.8-45.308-28.18-58.716l-82.803-57.286c4.861-9.396 8.015-18.881 9.622-28.71l37.645 28.426c11.892 8.979 26.646 13.924 41.544 13.924h2.017c16.887 0 32.972-6.111 45.579-17.236 0.057 1.355 0.152 2.657 0.29 3.9 5.755 51.539 24.951 100.494 122.676 112.258l2.448 2.053 44.814 39.723c31.344 27.781 34.237 74.087 6.588 105.419a15 15 0 0 0-3.537 12.462l7.768 45.266c0.021 0.119 0.043 0.239 0.066 0.358a14.951 14.951 0 0 1-3.133 12.424 14.948 14.948 0 0 1-11.585 5.472h-36.478c-8.284 0-15 6.716-15 15s6.716 15 15 15h36.478c13.507 0 26.175-5.983 34.755-16.415 8.538-10.382 11.973-23.884 9.437-37.075l-6.577-38.337zM244.549 258.343l-16.271-29.14a75.063 75.063 0 0 1 9.373-37.788l12.419-22.469c13.601-24.606 39.502-39.892 67.597-39.892 5.213 0 10.458 0.535 15.59 1.591l93.432 19.221c21.459 4.415 51.386 28.826 47.6 78.084l-15.485 29.506-25.47-41.781c-15.109-24.785-47.041-33.562-72.693-19.981l-8.694 4.602-8.694-4.602c-25.653-13.579-57.584-4.803-72.693 19.981l-26.011 42.668z m17.655 198.514l24.186-9.527 23.549 96.536-47.735-87.009z m219 13.918a519.59 519.59 0 0 1-8.483 34.023l-2.711 9.49c-5.42 18.969-7.425 38.93-5.976 58.62H414.65l56.098-106.252 10.456 4.119z m-63.966-23.551l24.706 9.732L387.9 559.32l29.338-112.096z m-99.332 2.717a98.673 98.673 0 0 0 5.605 2.441l0.639 0.255a74.914 74.914 0 0 0 27.797 5.365c9.416 0 18.834-1.789 27.795-5.364l0.642-0.256a97.139 97.139 0 0 0 5.068-2.195l-34.93 133.46-32.616-133.706zM663.465 643.22c10.695 7.399 16.283 18.998 15.33 31.822-0.938 12.631-8.251 23.834-19.119 29.334a14.99 14.99 0 0 0-2.784 1.671 14.999 14.999 0 0 0-4.026 19.294L749.123 897h-81.102L562.706 743.172c-1.022-1.703-2.421-3.609-4.542-6.494-24.898-33.864-52.645-83.392-6.342-122.354 11.55-9.719 21.156-19.07 28.983-28.291l82.66 57.187z m89.892-182.581c-4.926 18.16-9.352 34.853-12.717 49.645l-25.315 23.959a38.785 38.785 0 0 1-26.768 10.659h-2.017a39.175 39.175 0 0 1-23.466-7.865l-56.852-42.929c-2.937-14.942-8.436-30.846-15.638-48.908-4.37-10.961-15.696-12.271-22.464-13.055l-0.795-0.092c-3.152-8.763-6.716-20.986-8.009-28.43 0.455 0.198 0.927 0.378 1.416 0.541 48.976 16.33 91.44-53.129 107.421-83.75 2.133-4.088 3.329-6.62 3.379-6.725 3.532-7.49 0.324-16.421-7.164-19.958-7.486-3.534-16.426-0.332-19.967 7.154-0.01 0.021-1.021 2.153-2.845 5.65-19.731 37.808-48.172 73.097-68.765 69.798-5.304-4.352-15.396-10.618-26.439-7.047-6.548 2.117-14.848 8.148-17.211 24.857-2.438 17.235 12.308 54.22 12.458 54.583 4.599 11.083 16.163 12.421 23.073 13.221l0.277 0.032c21.209 54.563 22.921 82.8-32.446 129.39-30.926 26.024-42.057 60.01-32.188 98.282 7.544 29.257 25.193 53.262 33.676 64.797 1.131 1.539 2.53 3.442 2.964 4.118 0.694 1.256 1.56 2.651 2.644 4.397 5.082 8.191 16.985 27.374 13.343 41.252-1.488 5.67-5.745 10.365-13.014 14.356-24.748 13.587-31.18 33.907-32.217 48.562-0.723 10.213 1.057 20.664 4.055 29.866h-20.643l-0.025-0.046c-6.036-11.019-12.876-23.507-14.979-38.809-1.128-8.207-8.698-13.946-16.902-12.818-8.208 1.128-13.946 8.694-12.819 16.902 1.864 13.566 6.185 24.967 10.884 34.771H355.474V684.984l43.334-82.076h69.404c3.142 26.496-0.548 53.275-10.853 78.061l-0.35 0.843c-8.05 19.363-10.01 40.776-5.919 61.135h-31.756c-8.284 0-15 6.716-15 15s6.716 15 15 15h51.953c0.045 0 0.089 0.005 0.134 0.005 0.032 0 0.065-0.005 0.097-0.005h0.826c8.284 0 15-6.716 15-15 0-3.784-1.412-7.231-3.724-9.87-6.492-17.622-6.146-37.343 1.09-54.749l0.35-0.843c13.921-33.482 17.736-70.018 11.031-105.657l-0.169-0.9c-3.943-20.965-2.93-42.887 2.93-63.396l2.711-9.49c10.116-35.407 16.632-71.643 19.365-107.701 2.952-38.933 8.659-71.062 16.506-92.913 0.014-0.036 0.026-0.073 0.039-0.109 25.691-73.327 65.194-94.831 86.456-101.123a15.833 15.833 0 0 1 14.456 2.897c1.262 6.098 3.226 20.132 4.589 31.993 0.713 29.19 34.023 42.851 58.416 52.854 4.931 2.022 9.587 3.932 13.402 5.723 43.263 20.311 60.238 65.956 46.574 125.23-1.848 8.037-4.841 19.067-8.009 30.746z" fill="#2F195F" /><path d="M308.161 757.945c0-8.284-6.716-15-15-15h-40.299c-8.284 0-15 6.716-15 15s6.716 15 15 15h40.299c8.284 0 15-6.716 15-15z" fill="#2F195F" /><path d="M692.267 779.917c-5.175 0-10.209-2.681-12.991-7.48l-56.868-98.112c-4.154-7.168-1.712-16.346 5.455-20.5 7.169-4.154 16.346-1.713 20.5 5.455l56.868 98.112c4.154 7.168 1.712 16.346-5.455 20.5a14.945 14.945 0 0 1-7.509 2.025z" fill="#2F195F" /></svg>