<?xml version="1.0" standalone="no"?><!DOCTYPE svg PUBLIC "-//W3C//DTD SVG 1.1//EN" "http://www.w3.org/Graphics/SVG/1.1/DTD/svg11.dtd"><svg class="icon" width="200px" height="200.00px" viewBox="0 0 1024 1024" version="1.1" xmlns="http://www.w3.org/2000/svg"><path d="M301.253 913.658H108.676c-16.569 0-30-13.431-30-30V681.521c0-80.287 65.085-145.372 145.372-145.372h217.039c80.287 0 145.372 65.085 145.372 145.372v202.136c0 16.569-13.431 30-30 30H363.883" fill="#F52F57" /><path d="M363.883 914.658V660.769l90.738-123.137h-74.112v-44.364h-95.882v44.364h-74.112l90.738 123.137v253.889" fill="#FFFFFF" /><path d="M210.934 723.821h-47.232c-16.569 0-30-13.431-30-30V661.1h62.542l44.69-25.014v57.734c0 16.569-13.432 30.001-30 30.001zM210.934 838.932h-47.232c-16.569 0-30-13.431-30-30v-32.72h107.232v32.72c0 16.569-13.432 30-30 30z" fill="#7353BA" /><path d="M210.934 838.932h-47.232c-16.569 0-30-13.431-30-30v-32.72h107.232" fill="#7353BA" /><path d="M210.934 853.932h-47.231c-24.813 0-45-20.187-45-45v-32.72c0-8.284 6.716-15 15-15h107.231c8.284 0 15 6.716 15 15s-6.716 15-15 15h-92.231v17.72c0 8.271 6.729 15 15 15h47.231c8.284 0 15 6.716 15 15s-6.716 15-15 15z" fill="#2F195F" /><path d="M501.434 723.821h-47.232c-16.569 0-30-13.431-30-30v-49.469h107.232v49.469c0 16.568-13.431 30-30 30z" fill="#7353BA" /><path d="M501.434 738.82h-47.231c-24.813 0-45-20.187-45-45v-49.468c0-8.284 6.716-15 15-15h107.232c8.284 0 15 6.716 15 15v49.468c0 24.814-20.188 45-45.001 45z m-62.231-79.467v34.468c0 8.271 6.729 15 15 15h47.231c8.271 0 15-6.729 15-15v-34.468h-77.231z" fill="#2F195F" /><path d="M501.434 838.932h-47.232c-16.569 0-30-13.431-30-30v-32.72h107.232v32.72c0 16.569-13.431 30-30 30z" fill="#7353BA" /><path d="M501.434 853.932h-47.231c-24.813 0-45-20.187-45-45v-32.72c0-8.284 6.716-15 15-15h107.232c8.284 0 15 6.716 15 15v32.72c0 24.813-20.188 45-45.001 45z m-62.231-62.72v17.72c0 8.271 6.729 15 15 15h47.231c8.271 0 15-6.729 15-15v-17.72h-77.231z" fill="#2F195F" /><path d="M839.827 853.066H529.549c-36.25 0-65.637-29.387-65.637-65.637V530.786h441.551v256.643c0 36.25-29.386 65.637-65.636 65.637z" fill="#FFFFFF" /><path d="M463.912 530.786h441.551v66.497H463.912z" fill="#FFFFFF" /><path d="M492.561 597.283h67.884l66.497-66.497h-67.885zM644.205 597.283h67.885l66.496-66.497h-67.884zM863.734 597.283l41.729-41.729v-24.768h-43.117l-66.497 66.497z" fill="#7353BA" /><path d="M442.075 464.921L858.15 317.134l22.256 62.66-416.073 147.787z" fill="#FFFFFF" /><path d="M469.083 455.339l63.969-22.721 84.918 40.405-63.969 22.721zM611.981 404.583l63.97-22.721 84.917 40.405-63.969 22.721zM818.849 331.106l53.289 25.355 8.29 23.34-40.631 14.431-84.918-40.405z" fill="#7353BA" /><path d="M645.832 838.065h-5.708c-8.284 0-15 6.716-15 15s6.716 15 15 15h5.708c8.284 0 15-6.716 15-15s-6.716-15-15-15zM824.739 683.236c8.284 0 15-6.716 15-15s-6.716-15-15-15h-56.588c-8.284 0-15 6.716-15 15s6.716 15 15 15h56.588zM544.636 683.236h158.697c8.284 0 15-6.716 15-15s-6.716-15-15-15H544.636c-8.284 0-15 6.716-15 15s6.716 15 15 15zM669.688 753.159v45.982c0 8.284 6.716 15 15 15s15-6.716 15-15v-45.982H762.9v45.982c0 8.284 6.716 15 15 15s15-6.716 15-15v-45.982h31.84c8.284 0 15-6.716 15-15s-6.716-15-15-15H544.636c-8.284 0-15 6.716-15 15s6.716 15 15 15h31.84v45.982c0 8.284 6.716 15 15 15s15-6.716 15-15v-45.982h63.212z" fill="#2F195F" /><path d="M905.463 515.786H542.391l302.427-107.419 40.63-14.432a15 15 0 0 0 9.114-19.155l-22.257-62.661c-2.772-7.807-11.351-11.886-19.155-9.114L437.066 450.793a15 15 0 0 0-9.114 19.155l21.045 59.251c-0.055 0.522-0.086 1.05-0.086 1.586v256.643c0 44.463 36.173 80.637 80.637 80.637h56.909c8.284 0 15-6.716 15-15s-6.716-15-15-15h-56.909c-27.921 0-50.637-22.716-50.637-50.637V612.283h411.55v175.146c0 27.921-22.715 50.637-50.636 50.637h-155.14c-8.284 0-15 6.716-15 15s6.716 15 15 15h155.14c44.463 0 80.636-36.174 80.636-80.637V530.786c0.002-8.284-6.714-15-14.998-15zM805.93 351.613l12.085-4.292 42.067 20.017 1.19 3.349-20.641 7.331-46.607-22.176 11.906-4.229z m-51.885 18.429l46.608 22.176-38.95 13.835-46.607-22.176 38.949-13.835z m-95.821 34.034l16.892-6 46.607 22.176-23.99 8.521-46.607-22.176 7.098-2.521z m-47.077 16.722l46.607 22.176-38.949 13.835-46.608-22.176 38.95-13.835z m-99.836 35.46l20.907-7.426 46.606 22.176-23.99 8.521-46.607-22.176 3.084-1.095z m-37.853 52.177l-12.216-34.392 7.007-2.489 46.608 22.176-41.399 14.705z m12.89 73.848h-7.436v-36.497h43.933l-36.497 36.497z m67.884 0h-25.459l36.497-36.497h25.458l-36.496 36.497z m83.76 0h-41.334l36.497-36.497h41.335l-36.498 36.497z m67.885 0h-25.459l36.497-36.497h25.458l-36.496 36.497z m83.76 0h-41.334l36.497-36.497h41.335l-36.498 36.497z m100.826-32.942l-32.941 32.942h-25.459l36.497-36.497h21.903v3.555z" fill="#2F195F" /><path d="M916.795 763.414h-0.871c-23.82 0-43.13-23.025-43.13-51.427v-16.209c0-28.402 19.31-51.427 43.13-51.427h0.871c23.82 0 43.13 23.025 43.13 51.427v16.209c-0.001 28.403-19.31 51.427-43.13 51.427z" fill="#FFFFFF" /><path d="M916.795 778.414h-0.872c-32.053 0-58.129-29.799-58.129-66.427v-16.209c0-36.627 26.076-66.426 58.129-66.426h0.872c32.053 0 58.13 29.799 58.13 66.426v16.209c0 36.628-26.077 66.427-58.13 66.427z m-0.872-119.061c-15.511 0-28.129 16.341-28.129 36.426v16.209c0 20.086 12.618 36.427 28.129 36.427h0.872c15.511 0 28.13-16.341 28.13-36.427v-16.209c0-20.085-12.619-36.426-28.13-36.426h-0.872z" fill="#2F195F" /><path d="M369.93 472.036h-74.724c-58.693 0-106.274-47.58-106.274-106.274v-74.236c0-58.693 47.58-106.274 106.274-106.274h74.724c58.693 0 106.274 47.58 106.274 106.274v74.236c0 58.693-47.58 106.274-106.274 106.274z" fill="#FFFFFF" /><path d="M265.328 375.677h-16.317c-23.366 0-42.307-18.942-42.307-42.307v-26.322h100.932v26.322c-0.001 23.366-18.943 42.307-42.308 42.307zM413.068 375.677h-16.317c-23.366 0-42.307-18.942-42.307-42.307v-26.322h100.932v26.322c-0.001 23.366-18.943 42.307-42.308 42.307z" fill="#7353BA" /><path d="M498.331 407.268h-0.536c-7.329 0-13.27-5.941-13.27-13.27V277.907c0-7.329 5.941-13.27 13.27-13.27h0.536c21.986 0 39.81 17.823 39.81 39.81v63.011c0 21.986-17.823 39.81-39.81 39.81z" fill="#F52F57" /><path d="M495.38 255.952H169.756v-1.426c0-77.971 59.358-141.179 132.581-141.179H362.8c73.222 0 132.581 63.208 132.581 141.179v1.426z" fill="#F52F57" /><path d="M244.938 177.519a9.978 9.978 0 0 1-7.767-3.695c-3.483-4.287-2.831-10.584 1.456-14.067 19.656-15.969 43.07-24.41 67.711-24.41 5.523 0 10 4.477 10 10s-4.477 10-10 10c-19.996 0-39.049 6.893-55.1 19.933a9.962 9.962 0 0 1-6.3 2.239z" fill="#FFFFFF" /><path d="M214.506 216.989a9.967 9.967 0 0 1-4.181-0.921c-5.015-2.313-7.206-8.253-4.894-13.269a124.156 124.156 0 0 1 7.812-14.368c2.955-4.666 9.133-6.054 13.798-3.101 4.667 2.954 6.055 9.131 3.101 13.798a104.106 104.106 0 0 0-6.549 12.045 10 10 0 0 1-9.087 5.816z" fill="#FFFFFF" /><path d="M177.666 407.268h-0.536c-29.315 0-53.08-23.765-53.08-53.08v-36.471c0-29.315 23.765-53.08 53.08-53.08h0.536v142.631z" fill="#F52F57" /><path d="M469.519 562.403h-0.871c-23.82 0-43.13-23.025-43.13-51.427v-16.209c0-28.402 19.31-51.427 43.13-51.427h0.871c23.82 0 43.13 23.025 43.13 51.427v16.209c-0.001 28.403-19.31 51.427-43.13 51.427z" fill="#FFFFFF" /><path d="M437.085 443.285l-219.632 62.204c-81.248 18.818-138.777 91.195-138.777 174.594v1.439l358.408-100.36" fill="#FFFFFF" /><path d="M645.83 240.953h-11.584c-8.284 0-15 6.716-15 15s6.716 15 15 15h11.584c8.284 0 15-6.716 15-15s-6.716-15-15-15zM605.57 255.953c0-8.284-6.716-15-15-15h-80.754c-6.522-79.784-69.963-142.605-147.017-142.605h-60.462c-81.029 0-147.007 69.468-147.568 155.08-26.585 9.274-45.719 34.582-45.719 64.289v36.471c0 37.539 30.541 68.08 68.08 68.08h0.536c3.275 0 6.295-1.061 8.762-2.842a121.328 121.328 0 0 0 20.15 29.116c0.07 0.075 0.147 0.138 0.218 0.21 0.144 0.148 0.295 0.289 0.445 0.431 0.216 0.204 0.431 0.407 0.656 0.596 0.128 0.108 0.262 0.208 0.394 0.311 0.259 0.203 0.518 0.405 0.787 0.589 0.112 0.077 0.229 0.145 0.343 0.219 0.297 0.192 0.595 0.379 0.902 0.548 0.112 0.061 0.228 0.114 0.342 0.173 0.317 0.163 0.634 0.323 0.959 0.462 0.13 0.056 0.264 0.101 0.395 0.154 0.319 0.126 0.637 0.249 0.962 0.352 0.149 0.047 0.302 0.084 0.453 0.127 0.319 0.091 0.638 0.178 0.962 0.247 0.155 0.033 0.313 0.056 0.47 0.084 0.333 0.06 0.666 0.115 1.002 0.153 0.148 0.016 0.298 0.025 0.448 0.037 0.354 0.029 0.707 0.05 1.062 0.054 0.054 0.001 0.107 0.008 0.161 0.008h90.097c8.284 0 15-6.716 15-15s-6.716-15-15-15h-83.26c-12.582-15.462-19.719-34.509-20.372-54.52 10.498 13.326 26.764 21.903 45.008 21.903h16.317c31.599 0 57.307-25.708 57.307-57.307v-11.322h16.809v11.322c0 31.599 25.708 57.307 57.307 57.307h16.317c20.17 0 37.926-10.482 48.137-26.278v1.362c0 24.182-9.454 46.197-24.859 62.545a14.933 14.933 0 0 0-3.348 0.546l-219.29 62.107c-42.441 9.916-80.73 34.152-107.853 68.274-27.199 34.219-42.178 77.137-42.178 120.848V883.66c0 24.813 20.187 45 45 45h192.577c8.284 0 15-6.716 15-15V660.77c0-3.202-1.025-6.32-2.924-8.898l-18.834-25.559-6.56-8.903a15.001 15.001 0 0 0-16.121-5.546l-177.105 49.59c7.676-68.669 57.384-125.43 126.127-141.353 0.236-0.055 0.47-0.114 0.703-0.181l200.544-56.797v106.661l-86.553 24.236c-7.978 2.233-12.634 10.512-10.4 18.489s10.516 12.636 18.489 10.399l37.205-10.418-29.018 39.379a15.004 15.004 0 0 0-2.924 8.898v252.89c0 8.284 6.716 15 15 15H556.46c24.813 0 45-20.187 45-45v-27.455c-8.288 0.284-16.578 0.526-24.873 0.544a38.807 38.807 0 0 1-5.127-0.341v27.251c0 8.271-6.729 15-15 15H378.883v-232.96l48.896-66.355 13.35-3.738a15 15 0 0 0 10.956-14.444v-6.517a51.131 51.131 0 0 0 16.563 2.759h0.871c32.053 0 58.13-29.799 58.13-66.427v-16.209c0-35.039-23.868-63.808-53.998-66.24a121.532 121.532 0 0 0 9.587-19.595c0.425 0.036 0.853 0.065 1.288 0.065 8.284 0 15-6.716 15-15V279.666c13.128 0.625 23.616 11.501 23.616 24.781v48.154c0 8.284 6.716 15 15 15s15-6.716 15-15v-48.154c0-12.607-4.289-24.224-11.47-33.494h48.899c8.283 0 14.999-6.716 14.999-15zM162.666 389.414c-13.845-5.706-23.616-19.346-23.616-35.226v-36.471c0-15.88 9.771-29.521 23.616-35.226v106.923z m63.268 266.449v37.957c0 8.271-6.729 15-15 15h-47.231c-8.284 0-15 6.716-15 15s6.716 15 15 15h47.231c24.813 0 45-20.187 45-45v-46.358l13.995-3.919 0.5 0.678 1.835 2.491 0.006 0.007 13.985 18.979v232.96H108.676c-8.271 0-15-6.729-15-15v-190.76l132.258-37.035z m66.701-322.493c0 15.057-12.25 27.307-27.307 27.307h-16.317c-15.057 0-27.307-12.25-27.307-27.307v-11.322H292.635v11.322z m147.74 0c0 15.057-12.25 27.307-27.308 27.307H396.75c-15.057 0-27.307-12.25-27.307-27.307v-11.322h70.932v11.322z m15-41.322H206.703c-0.948 0-1.872 0.098-2.771 0.267v-0.789c0-7.074 0.817-13.958 2.348-20.573h252.562a91.08 91.08 0 0 1 2.362 20.573v1.702a14.9 14.9 0 0 0-5.829-1.18z m42.273 202.72v16.209c0 20.086-12.619 36.427-28.13 36.427h-0.871c-6.188 0-11.913-2.607-16.563-7.009V465.35c4.65-4.402 10.375-7.009 16.563-7.009h0.871c15.511 0 28.13 16.341 28.13 36.427zM185.432 240.953c6.331-63.214 56.345-112.605 116.905-112.605h60.462c60.561 0 110.575 49.391 116.905 112.605H185.432z" fill="#2F195F" /></svg>