<?xml version="1.0" standalone="no"?><!DOCTYPE svg PUBLIC "-//W3C//DTD SVG 1.1//EN" "http://www.w3.org/Graphics/SVG/1.1/DTD/svg11.dtd"><svg class="icon" width="200px" height="194.68px" viewBox="0 0 1052 1024" version="1.1" xmlns="http://www.w3.org/2000/svg"><path d="M13.4284 508.406963a494.970841 494.970841 0 1 1 494.9037 494.970841A494.903699 494.903699 0 0 1 13.4284 508.406963z" fill="#FFF100" /><path d="M40.285201 588.977366a552.310111 552.310111 0 0 1 631.604816-546.200189A494.903699 494.903699 0 0 0 55.862146 718.494288 551.504407 551.504407 0 0 1 40.285201 588.977366z" fill="#FFFFFF" /><path d="M971.947626 427.83656a551.907259 551.907259 0 0 1-551.907259 551.907259 564.731382 564.731382 0 0 1-79.563273-5.639928 495.037983 495.037983 0 0 0 616.027871-675.717111 552.310111 552.310111 0 0 1 15.442661 129.44978z" fill="#F8B62D" /><path d="M508.3321 1016.739062a508.3321 508.3321 0 1 1 456.028479-733.190665A13.4284 13.4284 0 0 1 939.988032 295.499674a481.475299 481.475299 0 1 0 36.458108 325.034433 13.4284 13.4284 0 1 1 26.118239 6.244206 506.384981 506.384981 0 0 1-494.232279 389.960749z" fill="#231815" /><path d="M1003.235799 521.835363a13.4284 13.4284 0 0 1-13.428401-13.4284A482.952423 482.952423 0 0 0 982.287494 423.069478a13.4284 13.4284 0 0 1 26.453949-4.69994 510.68207 510.68207 0 0 1 7.922756 90.037425 13.4284 13.4284 0 0 1-13.4284 13.4284z" fill="#231815" /><path d="M501.617899 501.289911m-80.570402 0a80.570403 80.570403 0 1 0 161.140805 0 80.570403 80.570403 0 1 0-161.140805 0Z" fill="#00A0E9" /><path d="M501.617899 595.288714a93.998803 93.998803 0 1 1 93.998804-93.998803 93.998803 93.998803 0 0 1-93.998804 93.998803z m0-161.140806a67.142002 67.142002 0 1 0 67.142003 67.142003 67.142002 67.142002 0 0 0-67.142003-67.142003z" fill="#231815" /><path d="M501.617899 236.079001m-80.570402 0a80.570403 80.570403 0 1 0 161.140805 0 80.570403 80.570403 0 1 0-161.140805 0Z" fill="#FFFFFF" /><path d="M501.617899 330.077805a93.998803 93.998803 0 1 1 93.998804-93.998804 93.998803 93.998803 0 0 1-93.998804 93.998804z m0-161.140806a67.142002 67.142002 0 1 0 67.142003 67.142002 67.142002 67.142002 0 0 0-67.142003-67.142002z" fill="#231815" /><path d="M235.467002 501.289911m-80.570403 0a80.570403 80.570403 0 1 0 161.140806 0 80.570403 80.570403 0 1 0-161.140806 0Z" fill="#FFFFFF" /><path d="M235.467002 595.288714a93.998803 93.998803 0 1 1 93.998803-93.998803 93.998803 93.998803 0 0 1-93.998803 93.998803z m0-161.140806a67.142002 67.142002 0 1 0 67.142002 67.142003 67.142002 67.142002 0 0 0-67.142002-67.142003z" fill="#231815" /><path d="M767.768797 501.289911m-80.570403 0a80.570403 80.570403 0 1 0 161.140805 0 80.570403 80.570403 0 1 0-161.140805 0Z" fill="#FFFFFF" /><path d="M767.768797 595.288714a93.998803 93.998803 0 1 1 93.998803-93.998803 93.998803 93.998803 0 0 1-93.998803 93.998803z m0-161.140806a67.142002 67.142002 0 1 0 67.142002 67.142003 67.142002 67.142002 0 0 0-67.142002-67.142003z" fill="#231815" /><path d="M501.617899 766.50082m-80.570402 0a80.570403 80.570403 0 1 0 161.140805 0 80.570403 80.570403 0 1 0-161.140805 0Z" fill="#FFFFFF" /><path d="M501.617899 860.499623a93.998803 93.998803 0 1 1 93.998804-93.998803 93.998803 93.998803 0 0 1-93.998804 93.998803z m0-161.140806a67.142002 67.142002 0 1 0 67.142003 67.142003 67.142002 67.142002 0 0 0-67.142003-67.142003zM501.617899 990.755108h452.67138a12.555554 12.555554 0 0 1 12.555554 12.555554 12.555554 12.555554 0 0 1-12.555554 12.555554H501.617899v-25.111108z" fill="#231815" /><path d="M989.807398 990.755108m12.555555 0l30.012475 0q12.555554 0 12.555554 12.555554l0 0q0 12.555554-12.555554 12.555554l-30.012475 0q-12.555554 0-12.555555-12.555554l0 0q0-12.555554 12.555555-12.555554Z" fill="#231815" /></svg>